<svg xmlns="http://www.w3.org/2000/svg" width="28" height="28" viewBox="0 0 28 28" fill="none">
  <path d="M18.1657 13.6143C19.1639 12.7625 19.8771 11.6251 20.2088 10.3554C20.5406 9.08574 20.4752 7.74487 20.0212 6.51357C19.5673 5.28227 18.7468 4.21975 17.6702 3.46926C16.5937 2.71877 15.313 2.31641 14.0007 2.31641C12.6883 2.31641 11.4076 2.71877 10.3311 3.46926C9.25453 4.21975 8.43399 5.28227 7.98007 6.51357C7.52615 7.74487 7.46067 9.08574 7.79246 10.3554C8.12426 11.6251 8.83737 12.7625 9.83565 13.6143C7.63096 14.4569 5.73368 15.9484 4.39434 17.8918C3.055 19.8352 2.33659 22.1391 2.33398 24.4993C2.33398 24.8087 2.4569 25.1055 2.67569 25.3243C2.89449 25.5431 3.19123 25.666 3.50065 25.666C3.81007 25.666 4.10682 25.5431 4.32561 25.3243C4.5444 25.1055 4.66732 24.8087 4.66732 24.4993C4.66732 22.0239 5.65065 19.65 7.40099 17.8996C9.15133 16.1493 11.5253 15.166 14.0007 15.166C16.476 15.166 18.85 16.1493 20.6003 17.8996C22.3507 19.65 23.334 22.0239 23.334 24.4993C23.334 24.8087 23.4569 25.1055 23.6757 25.3243C23.8945 25.5431 24.1912 25.666 24.5007 25.666C24.8101 25.666 25.1068 25.5431 25.3256 25.3243C25.5444 25.1055 25.6673 24.8087 25.6673 24.4993C25.6647 22.1391 24.9463 19.8352 23.607 17.8918C22.2676 15.9484 20.3703 14.4569 18.1657 13.6143ZM14.0007 12.8326C13.193 12.8326 12.4036 12.5932 11.7321 12.1445C11.0606 11.6958 10.5372 11.0581 10.2281 10.3119C9.91909 9.56579 9.83822 8.74477 9.99578 7.95268C10.1533 7.16059 10.5422 6.43301 11.1133 5.86195C11.6844 5.29088 12.4119 4.90198 13.204 4.74443C13.9961 4.58687 14.8171 4.66774 15.5633 4.97679C16.3094 5.28585 16.9471 5.80922 17.3958 6.48072C17.8445 7.15222 18.084 7.94169 18.084 8.7493C18.084 9.83227 17.6538 10.8709 16.888 11.6367C16.1222 12.4024 15.0836 12.8326 14.0007 12.8326Z" fill="#B9BBBD"/>
</svg>