<svg width="24" height="24" viewBox="0 0 24 24" fill="none" xmlns="http://www.w3.org/2000/svg">
    <path d="M15.8317 11.2979C16.83 10.4461 17.5431 9.30868 17.8749 8.03901C18.2067 6.76934 18.1412 5.42846 17.6873 4.19716C17.2333 2.96586 16.4128 1.90334 15.3363 1.15285C14.2597 0.402367 12.979 0 11.6667 0C10.3544 0 9.07361 0.402367 7.99708 1.15285C6.92055 1.90334 6.10001 2.96586 5.64609 4.19716C5.19216 5.42846 5.12668 6.76934 5.45848 8.03901C5.79027 9.30868 6.50338 10.4461 7.50167 11.2979C5.29698 12.1405 3.39969 13.632 2.06035 15.5754C0.721013 17.5188 0.00260714 19.8227 0 22.1829C0 22.4923 0.122916 22.7891 0.341709 23.0079C0.560501 23.2266 0.857248 23.3496 1.16667 23.3496C1.47609 23.3496 1.77283 23.2266 1.99162 23.0079C2.21042 22.7891 2.33333 22.4923 2.33333 22.1829C2.33333 19.7075 3.31666 17.3336 5.067 15.5832C6.81734 13.8329 9.19131 12.8496 11.6667 12.8496C14.142 12.8496 16.516 13.8329 18.2663 15.5832C20.0167 17.3336 21 19.7075 21 22.1829C21 22.4923 21.1229 22.7891 21.3417 23.0079C21.5605 23.2266 21.8573 23.3496 22.1667 23.3496C22.4761 23.3496 22.7728 23.2266 22.9916 23.0079C23.2104 22.7891 23.3333 22.4923 23.3333 22.1829C23.3307 19.8227 22.6123 17.5188 21.273 15.5754C19.9336 13.632 18.0364 12.1405 15.8317 11.2979ZM11.6667 10.5162C10.8591 10.5162 10.0696 10.2767 9.39809 9.82806C8.72659 9.37938 8.20322 8.74165 7.89416 7.99552C7.5851 7.24939 7.50424 6.42837 7.66179 5.63628C7.81935 4.84419 8.20825 4.11661 8.77932 3.54554C9.35038 2.97448 10.078 2.58558 10.87 2.42802C11.6621 2.27047 12.4832 2.35133 13.2293 2.66039C13.9754 2.96944 14.6132 3.49282 15.0618 4.16432C15.5105 4.83582 15.75 5.62529 15.75 6.4329C15.75 7.51586 15.3198 8.55447 14.554 9.32025C13.7882 10.086 12.7496 10.5162 11.6667 10.5162Z" fill="#838FA0"/>
</svg>
