<svg xmlns="http://www.w3.org/2000/svg" width="17" height="17" viewBox="0 0 17 17" fill="none">
  <g opacity="0.4">
    <path d="M12.4078 9.12476H8.30987H4.61975C3.98828 9.12476 3.67255 9.88778 4.11984 10.3351L7.52711 13.7423C8.07307 14.2883 8.96107 14.2883 9.50702 13.7423L10.8028 12.4465L12.9143 10.3351C13.355 9.88778 13.0393 9.12476 12.4078 9.12476Z" fill="#939393"/>
    <path d="M4.62149 7.57275L8.71943 7.57275L12.4096 7.57275C13.041 7.57275 13.3567 6.80973 12.9095 6.36245L9.50218 2.95517C8.95623 2.40921 8.06823 2.40921 7.52228 2.95517L6.22646 4.25099L4.115 6.36245C3.67429 6.80973 3.99002 7.57275 4.62149 7.57275Z" fill="#939393"/>
  </g>
</svg>