<svg width="22" height="22" viewBox="0 0 22 22" fill="none" xmlns="http://www.w3.org/2000/svg">
<path d="M12.7633 2.29486C13.1227 2.29483 13.4758 2.38871 13.7877 2.56718C14.0997 2.74565 14.3595 3.00253 14.5416 3.31236L15.2878 4.58378H17.1862C17.9762 4.58378 18.7338 4.89753 19.2925 5.45603C19.8511 6.01454 20.1651 6.77206 20.1654 7.56203V16.2704C20.1654 16.6616 20.0883 17.049 19.9386 17.4104C19.7889 17.7719 19.5694 18.1003 19.2928 18.377C19.0161 18.6536 18.6877 18.873 18.3263 19.0228C17.9648 19.1725 17.5774 19.2495 17.1862 19.2495H4.8112C4.02107 19.2495 3.26331 18.9357 2.70461 18.377C2.14591 17.8182 1.83203 17.0605 1.83203 16.2704V7.56203C1.83203 6.7719 2.14591 6.01414 2.70461 5.45544C3.26331 4.89674 4.02107 4.58286 4.8112 4.58286H6.71786L7.51995 3.27753C7.70437 2.97706 7.96273 2.72889 8.27037 2.55669C8.57801 2.3845 8.92465 2.29404 9.2772 2.29395H12.7633V2.29486ZM12.7633 3.66986H9.2772C9.17688 3.66994 9.0778 3.69198 8.9869 3.73442C8.89601 3.77686 8.8155 3.83867 8.75103 3.91553L8.69145 3.99803L7.68953 5.6297C7.62809 5.72991 7.54199 5.81269 7.43944 5.87015C7.33689 5.9276 7.22133 5.9578 7.10378 5.95786H4.81211C4.60138 5.95774 4.39268 5.99915 4.19795 6.07971C4.00321 6.16027 3.82626 6.27841 3.6772 6.42739C3.52815 6.57636 3.4099 6.75324 3.32923 6.94793C3.24855 7.14262 3.20703 7.35129 3.20703 7.56203V16.2704C3.20703 17.1559 3.9257 17.8745 4.8112 17.8745H17.1862C17.6116 17.8745 18.0197 17.7055 18.3205 17.4047C18.6214 17.1038 18.7904 16.6958 18.7904 16.2704V7.56203C18.7904 7.13658 18.6214 6.72855 18.3205 6.42771C18.0197 6.12687 17.6116 5.95786 17.1862 5.95786H14.8945C14.7747 5.95792 14.6569 5.92666 14.5529 5.86717C14.4488 5.80767 14.3622 5.72202 14.3014 5.6187L13.3554 4.00811C13.2948 3.90492 13.2083 3.81935 13.1044 3.75987C13.0006 3.70038 12.883 3.66904 12.7633 3.66895V3.66986ZM10.9987 7.33286C12.0927 7.33286 13.1419 7.76746 13.9155 8.54105C14.6891 9.31463 15.1237 10.3638 15.1237 11.4579C15.1237 12.5519 14.6891 13.6011 13.9155 14.3747C13.1419 15.1483 12.0927 15.5829 10.9987 15.5829C9.90468 15.5829 8.85547 15.1483 8.08188 14.3747C7.3083 13.6011 6.8737 12.5519 6.8737 11.4579C6.8737 10.3638 7.3083 9.31463 8.08188 8.54105C8.85547 7.76746 9.90468 7.33286 10.9987 7.33286ZM10.9987 8.70786C10.6376 8.70786 10.28 8.77899 9.94632 8.91719C9.61267 9.05539 9.30951 9.25796 9.05415 9.51332C8.79879 9.76868 8.59623 10.0718 8.45803 10.4055C8.31983 10.7391 8.2487 11.0967 8.2487 11.4579C8.2487 11.819 8.31983 12.1766 8.45803 12.5102C8.59623 12.8439 8.79879 13.147 9.05415 13.4024C9.30951 13.6578 9.61267 13.8603 9.94632 13.9985C10.28 14.1367 10.6376 14.2079 10.9987 14.2079C11.728 14.2079 12.4275 13.9181 12.9432 13.4024C13.459 12.8867 13.7487 12.1872 13.7487 11.4579C13.7487 10.7285 13.459 10.029 12.9432 9.51332C12.4275 8.99759 11.728 8.70786 10.9987 8.70786Z" fill="#E0B37F"/>
</svg>
