<svg xmlns="http://www.w3.org/2000/svg" width="11" height="11" viewBox="0 0 11 11" fill="none">
  <path d="M5.51016 2.53854V5.66641H7.85606M10.202 5.66641C10.202 6.28255 10.0806 6.89265 9.84482 7.46189C9.60904 8.03112 9.26344 8.54834 8.82777 8.98402C8.39209 9.41969 7.87487 9.76529 7.30564 10.0011C6.7364 10.2369 6.1263 10.3582 5.51016 10.3582C4.89403 10.3582 4.28392 10.2369 3.71469 10.0011C3.14545 9.76529 2.62823 9.41969 2.19256 8.98402C1.75688 8.54834 1.41129 8.03112 1.1755 7.46189C0.939716 6.89265 0.818359 6.28255 0.818359 5.66641C0.818359 4.42207 1.31267 3.22869 2.19256 2.34881C3.07244 1.46892 4.26582 0.974609 5.51016 0.974609C6.75451 0.974609 7.94789 1.46892 8.82777 2.34881C9.70765 3.22869 10.202 4.42207 10.202 5.66641Z" stroke="#8E8E90" stroke-width="1.04262" stroke-linecap="round" stroke-linejoin="round"/>
</svg>