<svg width="28" height="28" viewBox="0 0 28 28" fill="none" xmlns="http://www.w3.org/2000/svg">
<g id="collection-play">
<path id="Rectangle 40 (Stroke)" fill-rule="evenodd" clip-rule="evenodd" d="M25.375 23.625H2.625C2.14175 23.625 1.75 23.2332 1.75 22.75V10.5C1.75 10.0168 2.14175 9.625 2.625 9.625H25.375C25.8582 9.625 26.25 10.0168 26.25 10.5V22.75C26.25 23.2332 25.8582 23.625 25.375 23.625ZM2.625 25.375C1.17525 25.375 0 24.1997 0 22.75V10.5C0 9.05025 1.17525 7.875 2.625 7.875H25.375C26.8247 7.875 28 9.05025 28 10.5V22.75C28 24.1997 26.8247 25.375 25.375 25.375H2.625Z" fill="#C89963"/>
<path id="Vector 28 (Stroke)" fill-rule="evenodd" clip-rule="evenodd" d="M3.5 5.25C3.5 5.73325 3.89175 6.125 4.375 6.125H23.625C24.1082 6.125 24.5 5.73325 24.5 5.25C24.5 4.76675 24.1082 4.375 23.625 4.375H4.375C3.89175 4.375 3.5 4.76675 3.5 5.25ZM7 1.75C7 2.23325 7.39175 2.625 7.875 2.625H20.125C20.6082 2.625 21 2.23325 21 1.75C21 1.26675 20.6082 0.875 20.125 0.875H7.875C7.39175 0.875 7 1.26675 7 1.75Z" fill="#C89963"/>
<path id="Vector 29 (Stroke)" fill-rule="evenodd" clip-rule="evenodd" d="M10.9508 11.4847C11.229 11.3305 11.569 11.3394 11.8387 11.508L18.8387 15.883C19.0946 16.0429 19.25 16.3233 19.25 16.625C19.25 16.9267 19.0946 17.2071 18.8387 17.367L11.8387 21.742C11.569 21.9106 11.229 21.9195 10.9508 21.7653C10.6726 21.6111 10.5 21.3181 10.5 21V12.25C10.5 11.9319 10.6726 11.6389 10.9508 11.4847Z" fill="#C89963"/>
</g>
</svg>
