<svg xmlns="http://www.w3.org/2000/svg" width="52" height="52" viewBox="0 0 52 52" fill="none">
  <path d="M10.3345 1.24777H41.5988C46.561 1.24777 50.5836 5.27041 50.5836 10.2326V41.4967C50.5836 46.459 46.5609 50.4818 41.5988 50.4818H10.3345C5.37233 50.4818 1.34958 46.459 1.34958 41.4967V10.2326C1.34958 5.27042 5.37231 1.24777 10.3345 1.24777Z" fill="#CA9B64" fill-opacity="0.1" stroke="#CA9B64" stroke-width="1.41009"/>
  <path d="M23.2578 18.3975H35.876" stroke="#E72323" stroke-width="1.54887" stroke-linecap="round" stroke-linejoin="round"/>
  <path d="M16.6016 18.3975H20.7239" stroke="#E72323" stroke-width="1.54887" stroke-linecap="round" stroke-linejoin="round"/>
  <path d="M34.1087 18.3975V33.397C34.1087 34.7083 33.1505 35.7704 31.9673 35.7704H20.575C19.3919 35.7704 18.4336 34.7083 18.4336 33.397V18.3975" stroke="#E72323" stroke-width="1.54887" stroke-linecap="round" stroke-linejoin="round"/>
  <path d="M30.207 22.8118V31.3616" stroke="#E72323" stroke-width="1.54887" stroke-linecap="round" stroke-linejoin="round"/>
  <path d="M22.3359 22.8118V31.3616" stroke="#E72323" stroke-width="1.54887" stroke-linecap="round" stroke-linejoin="round"/>
  <path d="M26.2793 22.8118V31.3616" stroke="#E72323" stroke-width="1.54887" stroke-linecap="round" stroke-linejoin="round"/>
  <path d="M26.2416 14.4177C27.8905 14.4177 29.2289 15.9008 29.2289 17.7283V18.4048H23.2598V17.7283C23.2598 15.9008 24.5981 14.4177 26.2469 14.4177H26.2416Z" stroke="#E72323" stroke-width="1.54887" stroke-linecap="round" stroke-linejoin="round"/>
</svg>