<svg xmlns="http://www.w3.org/2000/svg" width="51" height="52" viewBox="0 0 51 52" fill="none">
  <path d="M9.68989 1.24777H40.9542C45.9164 1.24777 49.9391 5.27041 49.9391 10.2326V41.4967C49.9391 46.459 45.9164 50.4818 40.9542 50.4818H9.68989C4.72771 50.4818 0.705047 46.459 0.705047 41.4967V10.2326C0.705047 5.27041 4.72769 1.24777 9.68989 1.24777Z" fill="#CA9B64" fill-opacity="0.1" stroke="#CA9B64" stroke-width="1.41009"/>
  <path d="M15.8496 29.5162L14.2188 36.2258L20.9281 34.5948L34.7486 20.7745C36.1516 19.3714 36.1516 17.0989 34.7486 15.6958C33.3456 14.2928 31.0731 14.2928 29.6701 15.6958L15.8496 29.5162Z" stroke="#2C3149" stroke-width="1.68814" stroke-linecap="round" stroke-linejoin="round"/>
  <path d="M29.418 18.9763L32.182 21.7403" stroke="#2C3149" stroke-width="1.68814" stroke-linecap="round" stroke-linejoin="round"/>
  <path d="M14.8438 33.6716L16.7684 35.6083" stroke="#2C3149" stroke-width="1.68814" stroke-linecap="round" stroke-linejoin="round"/>
  <path d="M23.1895 36.2261H35.8048" stroke="#2C3149" stroke-width="1.68814" stroke-linecap="round" stroke-linejoin="round"/>
</svg>