<svg xmlns="http://www.w3.org/2000/svg" width="23" height="24" viewBox="0 0 23 24" fill="none">
  <path fill-rule="evenodd" clip-rule="evenodd" d="M21.5625 20.625C21.5625 20.625 23 20.625 23 19.1875C23 17.75 21.5625 13.4375 15.8125 13.4375C10.0625 13.4375 8.625 17.75 8.625 19.1875C8.625 20.625 10.0625 20.625 10.0625 20.625H21.5625ZM10.0946 19.1875H21.5304C21.5354 19.1869 21.5423 19.186 21.5508 19.1846C21.5548 19.1839 21.5587 19.1832 21.5625 19.1825C21.5604 18.8029 21.3226 17.7024 20.4711 16.709C19.6746 15.7797 18.2811 14.875 15.8125 14.875C13.3439 14.875 11.9504 15.7797 11.1539 16.709C10.3024 17.7024 10.0646 18.8029 10.0625 19.1825C10.0663 19.1832 10.0702 19.1839 10.0742 19.1846C10.0827 19.186 10.0896 19.1869 10.0946 19.1875Z" />
  <path fill-rule="evenodd" clip-rule="evenodd" d="M15.8125 10.5625C17.4003 10.5625 18.6875 9.27532 18.6875 7.6875C18.6875 6.09968 17.4003 4.8125 15.8125 4.8125C14.2247 4.8125 12.9375 6.09968 12.9375 7.6875C12.9375 9.27532 14.2247 10.5625 15.8125 10.5625ZM20.125 7.6875C20.125 10.0692 18.1942 12 15.8125 12C13.4308 12 11.5 10.0692 11.5 7.6875C11.5 5.30577 13.4308 3.375 15.8125 3.375C18.1942 3.375 20.125 5.30577 20.125 7.6875Z" />
  <path fill-rule="evenodd" clip-rule="evenodd" d="M9.9704 13.8399C9.44169 13.6708 8.85433 13.5479 8.20278 13.485C7.8803 13.4539 7.5421 13.4375 7.1875 13.4375C1.4375 13.4375 0 17.75 0 19.1875C0 20.1458 0.479167 20.625 1.4375 20.625H7.49852C7.29612 20.2166 7.1875 19.7325 7.1875 19.1875C7.1875 17.7352 7.72979 16.2522 8.75411 15.0133C9.10408 14.59 9.51031 14.1952 9.9704 13.8399ZM7.07256 14.8757C4.67546 14.9033 3.31298 15.7942 2.52893 16.709C1.6736 17.7068 1.4375 18.8127 1.4375 19.1875H5.75C5.75 17.6849 6.21367 16.1883 7.07256 14.8757Z" />
  <path fill-rule="evenodd" clip-rule="evenodd" d="M2.15625 8.40625C2.15625 6.02452 4.08702 4.09375 6.46875 4.09375C8.85048 4.09375 10.7812 6.02452 10.7812 8.40625C10.7812 10.788 8.85048 12.7188 6.46875 12.7188C4.08702 12.7188 2.15625 10.788 2.15625 8.40625ZM6.46875 5.53125C4.88093 5.53125 3.59375 6.81843 3.59375 8.40625C3.59375 9.99407 4.88093 11.2812 6.46875 11.2812C8.05657 11.2812 9.34375 9.99407 9.34375 8.40625C9.34375 6.81843 8.05657 5.53125 6.46875 5.53125Z" />
</svg>