<svg width="27" height="27" viewBox="0 0 27 27" fill="none" xmlns="http://www.w3.org/2000/svg">
<path d="M9.84787 4.9278C9.2957 4.9278 8.76605 5.14718 8.37542 5.5376C7.985 5.92802 7.76562 6.45766 7.76562 7.01004C7.76562 7.29751 7.99872 7.5306 8.28619 7.5306C8.57365 7.5306 8.80675 7.29751 8.80675 7.01004C8.80767 6.64821 8.99638 6.31285 9.305 6.12438C9.61361 5.93567 9.9982 5.9208 10.3205 6.0851C10.6429 6.24917 10.8567 6.56894 10.8857 6.9296C10.9145 7.29004 10.7542 7.63982 10.4621 7.85334C9.77397 8.32696 9.35241 9.10037 9.3273 9.93558V10.1333C9.3273 10.4208 9.56039 10.6539 9.84786 10.6539C10.1353 10.6539 10.3684 10.4208 10.3684 10.1333V9.93558C10.3958 9.43408 10.6582 8.9749 11.0763 8.69647C11.6145 8.30326 11.9317 7.67629 11.9301 7.00997C11.9301 6.45757 11.7107 5.92792 11.3203 5.53753C10.9296 5.14711 10.4 4.92773 9.84786 4.92773L9.84787 4.9278Z" fill="#CA9A63" stroke="#CA9A63"/>
<path d="M9.84772 11.3623C9.59492 11.3623 9.36701 11.5147 9.27026 11.7484C9.17351 11.9819 9.227 12.2507 9.40561 12.4296C9.58445 12.6084 9.8533 12.6619 10.087 12.5651C10.3205 12.4684 10.4728 12.2402 10.4728 11.9874C10.4728 11.6423 10.1931 11.3623 9.84772 11.3623Z" fill="#CA9A63" stroke="#CA9A63"/>
<path d="M14.4267 17.5156C14.153 17.5156 13.9062 17.6804 13.8016 17.9335C13.6968 18.1863 13.7546 18.4773 13.9482 18.6709C14.1418 18.8645 14.4328 18.9223 14.6856 18.8175C14.9387 18.7129 15.1035 18.4661 15.1035 18.1924C15.1035 17.8187 14.8004 17.5156 14.4267 17.5156Z" fill="#CA9A63" stroke="#CA9A63"/>
<path d="M17.1338 17.5156C16.86 17.5156 16.6132 17.6804 16.5086 17.9335C16.4038 18.1863 16.4617 18.4773 16.6553 18.6709C16.8488 18.8645 17.1398 18.9223 17.3927 18.8175C17.6457 18.7129 17.8105 18.4661 17.8105 18.1924C17.8105 17.8187 17.5074 17.5156 17.1338 17.5156Z" fill="#CA9A63" stroke="#CA9A63"/>
<path d="M19.8408 17.5156C19.567 17.5156 19.3202 17.6804 19.2156 17.9335C19.1108 18.1863 19.1687 18.4773 19.3623 18.6709C19.5559 18.8645 19.8468 18.9223 20.0997 18.8175C20.3528 18.7129 20.5175 18.4661 20.5175 18.1924C20.5175 17.8187 20.2145 17.5156 19.8408 17.5156Z" fill="#CA9A63" stroke="#CA9A63"/>
<path d="M25.7757 25.0635L23.1834 23.1165C24.419 21.6164 25.0492 19.7082 24.9498 17.767C24.8503 15.8259 24.0288 13.9921 22.646 12.6258C21.2636 11.2598 19.4202 10.4599 17.4779 10.3837C17.588 9.87007 17.6473 9.34718 17.6549 8.82198C17.6594 6.2826 16.4284 3.89968 14.355 2.43307C12.2815 0.966879 9.62458 0.600404 7.23191 1.45097C4.83894 2.3013 3.00912 4.26199 2.32609 6.70791C1.64288 9.15383 2.19177 11.7789 3.79758 13.7459L1.20525 15.6929C1.02677 15.8288 0.955429 16.0638 1.02816 16.276C1.09649 16.4881 1.29472 16.6315 1.51759 16.6299H9.48245C9.37741 17.1437 9.32512 17.6671 9.32628 18.1916C9.32628 20.2625 10.1489 22.2487 11.6132 23.713C13.0775 25.1773 15.0638 26 17.1347 26H25.4636C25.6865 26.0016 25.8847 25.8582 25.9531 25.6461C26.0258 25.4339 25.9545 25.1989 25.776 25.063L25.7757 25.0635ZM3.07929 15.5893L4.87014 14.2463C4.98703 14.1545 5.06233 14.0193 5.07836 13.8715C5.08022 13.7355 5.0277 13.6042 4.93242 13.5071C3.39186 11.8799 2.75654 9.59546 3.23617 7.40613C3.71559 5.21722 5.24773 3.40757 7.32765 2.57331C9.40733 1.73922 11.7654 1.98861 13.6243 3.2398C15.4835 4.49075 16.6029 6.58091 16.6136 8.82187C16.6032 9.34801 16.5369 9.87162 16.4158 10.3836C14.9281 10.5255 13.5125 11.0916 12.3369 12.0142C11.1612 12.9371 10.2754 14.1778 9.78385 15.5892L3.07929 15.5893ZM17.1344 24.9594C14.7166 25.0096 12.4559 23.766 11.2035 21.6975C9.95116 19.6288 9.8975 17.0492 11.0629 14.9303C12.2284 12.8113 14.4356 11.4751 16.8532 11.4248H17.1344C18.9194 11.4102 20.6378 12.1025 21.9141 13.3507C23.1904 14.5988 23.921 16.3012 23.9461 18.0862C23.9712 19.8712 23.2891 21.5937 22.0486 22.8772C21.9456 22.9864 21.8929 23.1335 21.9026 23.2832C21.9138 23.4326 21.9898 23.5697 22.1109 23.658L23.9017 24.9594H17.1344Z" fill="#CA9A63" stroke="#CA9A63"/>
</svg>
