<svg xmlns="http://www.w3.org/2000/svg" width="28" height="28" viewBox="0 0 28 28" fill="none">
  <path d="M3.5 9.33268V23.3327C3.5 23.6421 3.62292 23.9389 3.84171 24.1576C4.0605 24.3764 4.35725 24.4994 4.66667 24.4994H10.5C10.8094 24.4994 11.1062 24.3764 11.325 24.1576C11.5437 23.9389 11.6667 23.6421 11.6667 23.3327V15.166H16.3333V23.3327C16.3333 23.6421 16.4562 23.9389 16.675 24.1576C16.8938 24.3764 17.1906 24.4994 17.5 24.4994H23.3333C23.6428 24.4994 23.9395 24.3764 24.1583 24.1576C24.3771 23.9389 24.5 23.6421 24.5 23.3327V9.33268C24.5 9.15157 24.4578 8.97293 24.3768 8.81094C24.2958 8.64894 24.1782 8.50802 24.0333 8.39935L14.7 1.39935C14.4981 1.24789 14.2524 1.16602 14 1.16602C13.7476 1.16602 13.5019 1.24789 13.3 1.39935L3.96667 8.39935C3.82177 8.50802 3.70417 8.64894 3.62317 8.81094C3.54217 8.97293 3.5 9.15157 3.5 9.33268ZM5.83333 9.91602L14 3.79102L22.1667 9.91602V22.166H18.6667V13.9994C18.6667 13.6899 18.5437 13.3932 18.325 13.1744C18.1062 12.9556 17.8094 12.8327 17.5 12.8327H10.5C10.1906 12.8327 9.89383 12.9556 9.67504 13.1744C9.45625 13.3932 9.33333 13.6899 9.33333 13.9994V22.166H5.83333V9.91602Z"/>
</svg>