<svg xmlns="http://www.w3.org/2000/svg" width="40" height="40" viewBox="0 0 40 40" fill="none">
<path d="M12.8608 30.0724H18.9884C20.171 30.0724 21.139 29.1226 21.139 27.94V26.3145C21.139 25.8853 20.792 25.5383 20.3628 25.5383C19.9336 25.5383 19.5866 25.8853 19.5866 26.3145V27.94C19.5866 28.2688 19.3172 28.5199 18.9884 28.5199H12.8608C12.5321 28.5199 12.281 28.2688 12.281 27.94V16.1323C12.281 15.8036 12.5321 15.5524 12.8608 15.5524H18.9884C19.3172 15.5524 19.5866 15.8036 19.5866 16.1323V17.7259C19.5866 18.1551 19.9336 18.5021 20.3628 18.5021C20.792 18.5021 21.139 18.1551 21.139 17.7259V16.1323C21.139 14.9497 20.171 14 18.9884 14H12.8608C11.6782 14 10.7285 14.9497 10.7285 16.1323V27.94C10.7285 29.1226 11.6782 30.0724 12.8608 30.0724Z" fill="#B9BBBD"/>
<path d="M23.9843 26.0765C24.1304 26.2043 24.3131 26.2682 24.4912 26.2682C24.7103 26.2682 24.9249 26.1769 25.0756 25.9988L28.0161 22.6108C28.1714 22.4693 28.2718 22.2638 28.2718 22.0355C28.2718 21.789 28.1577 21.5698 27.975 21.4282L25.0345 18.4877C24.7332 18.1864 24.24 18.1864 23.9387 18.4877C23.6373 18.7891 23.6373 19.2822 23.9387 19.5836L25.6144 21.2593H15.5829C15.1537 21.2593 14.8066 21.6063 14.8066 22.0355C14.8066 22.4647 15.1537 22.8118 15.5829 22.8118H25.7879L23.9067 24.9806C23.6236 25.3048 23.6601 25.7979 23.9843 26.0765Z" fill="#B9BBBD"/>
</svg>