<svg xmlns="http://www.w3.org/2000/svg" width="28" height="28" viewBox="0 0 28 28" fill="none">
  <path d="M10.8459 5.9278C10.2937 5.9278 9.7641 6.14718 9.37347 6.5376C8.98305 6.92802 8.76367 7.45766 8.76367 8.01004C8.76367 8.29751 8.99676 8.5306 9.28423 8.5306C9.5717 8.5306 9.80479 8.29751 9.80479 8.01004C9.80572 7.64821 9.99442 7.31285 10.303 7.12438C10.6117 6.93567 10.9963 6.9208 11.3186 7.0851C11.6409 7.24917 11.8547 7.56894 11.8838 7.9296C11.9126 8.29004 11.7522 8.63982 11.4601 8.85334C10.772 9.32696 10.3505 10.1004 10.3253 10.9356V11.1333C10.3253 11.4208 10.5584 11.6539 10.8459 11.6539C11.1334 11.6539 11.3665 11.4208 11.3665 11.1333V10.9356C11.3939 10.4341 11.6563 9.9749 12.0743 9.69647C12.6125 9.30326 12.9298 8.67629 12.9281 8.00997C12.9281 7.45757 12.7088 6.92792 12.3183 6.53753C11.9277 6.14711 11.3981 5.92773 10.8459 5.92773L10.8459 5.9278Z"  stroke="#B9BBBD"/>
  <path d="M10.8477 12.3633C10.5949 12.3633 10.367 12.5156 10.2703 12.7494C10.1735 12.9829 10.227 13.2517 10.4056 13.4305C10.5845 13.6094 10.8533 13.6629 11.087 13.5661C11.3205 13.4694 11.4728 13.2412 11.4728 12.9884C11.4728 12.6433 11.1931 12.3633 10.8477 12.3633Z"  stroke="#B9BBBD"/>
  <path d="M15.4267 18.5156C15.153 18.5156 14.9062 18.6804 14.8016 18.9335C14.6968 19.1863 14.7546 19.4773 14.9482 19.6709C15.1418 19.8645 15.4328 19.9223 15.6856 19.8175C15.9387 19.7129 16.1035 19.4661 16.1035 19.1924C16.1035 18.8187 15.8004 18.5156 15.4267 18.5156Z" stroke="#B9BBBD"/>
  <path d="M18.1338 18.5156C17.86 18.5156 17.6132 18.6804 17.5086 18.9335C17.4038 19.1863 17.4617 19.4773 17.6553 19.6709C17.8488 19.8645 18.1398 19.9223 18.3927 19.8175C18.6457 19.7129 18.8105 19.4661 18.8105 19.1924C18.8105 18.8187 18.5074 18.5156 18.1338 18.5156Z"  stroke="#B9BBBD"/>
  <path d="M20.8408 18.5156C20.567 18.5156 20.3202 18.6804 20.2156 18.9335C20.1108 19.1863 20.1687 19.4773 20.3623 19.6709C20.5559 19.8645 20.8468 19.9223 21.0997 19.8175C21.3528 19.7129 21.5175 19.4661 21.5175 19.1924C21.5175 18.8187 21.2145 18.5156 20.8408 18.5156Z"  stroke="#B9BBBD"/>
  <path d="M26.7757 26.0635L24.1834 24.1165C25.419 22.6164 26.0492 20.7082 25.9498 18.767C25.8503 16.8259 25.0288 14.9921 23.646 13.6258C22.2636 12.2598 20.4202 11.4599 18.4779 11.3837C18.588 10.8701 18.6473 10.3472 18.6549 9.82198C18.6594 7.2826 17.4284 4.89968 15.355 3.43307C13.2815 1.96688 10.6246 1.6004 8.23191 2.45097C5.83894 3.3013 4.00912 5.26199 3.32609 7.70791C2.64288 10.1538 3.19177 12.7789 4.79758 14.7459L2.20525 16.6929C2.02677 16.8288 1.95543 17.0638 2.02816 17.276C2.09649 17.4881 2.29472 17.6315 2.51759 17.6299H10.4825C10.3774 18.1437 10.3251 18.6671 10.3263 19.1916C10.3263 21.2625 11.1489 23.2487 12.6132 24.713C14.0775 26.1773 16.0638 27 18.1347 27H26.4636C26.6865 27.0016 26.8847 26.8582 26.9531 26.6461C27.0258 26.4339 26.9545 26.1989 26.776 26.063L26.7757 26.0635ZM4.07929 16.5893L5.87014 15.2463C5.98703 15.1545 6.06233 15.0193 6.07836 14.8715C6.08022 14.7355 6.0277 14.6042 5.93242 14.5071C4.39186 12.8799 3.75654 10.5955 4.23617 8.40613C4.71559 6.21722 6.24773 4.40757 8.32765 3.57331C10.4073 2.73922 12.7654 2.98861 14.6243 4.2398C16.4835 5.49075 17.6029 7.58091 17.6136 9.82187C17.6032 10.348 17.5369 10.8716 17.4158 11.3836C15.9281 11.5255 14.5125 12.0916 13.3369 13.0142C12.1612 13.9371 11.2754 15.1778 10.7838 16.5892L4.07929 16.5893ZM18.1344 25.9594C15.7166 26.0096 13.4559 24.766 12.2035 22.6975C10.9512 20.6288 10.8975 18.0492 12.0629 15.9303C13.2284 13.8113 15.4356 12.4751 17.8532 12.4248H18.1344C19.9194 12.4102 21.6378 13.1025 22.9141 14.3507C24.1904 15.5988 24.921 17.3012 24.9461 19.0862C24.9712 20.8712 24.2891 22.5937 23.0486 23.8772C22.9456 23.9864 22.8929 24.1335 22.9026 24.2832C22.9138 24.4326 22.9898 24.5697 23.1109 24.658L24.9017 25.9594H18.1344Z" />
</svg>