<svg width="30" height="30" viewBox="0 0 30 30" fill="none" xmlns="http://www.w3.org/2000/svg">
<g id="mic">
<path id="Vector" fill-rule="evenodd" clip-rule="evenodd" d="M6.5625 12.1875C7.08027 12.1875 7.5 12.6072 7.5 13.125V15C7.5 19.1421 10.8579 22.5 15 22.5C19.1421 22.5 22.5 19.1421 22.5 15V13.125C22.5 12.6072 22.9197 12.1875 23.4375 12.1875C23.9553 12.1875 24.375 12.6072 24.375 13.125V15C24.375 19.8613 20.675 23.8583 15.9375 24.3287V28.125H21.5625C22.0803 28.125 22.5 28.5447 22.5 29.0625C22.5 29.5803 22.0803 30 21.5625 30H8.4375C7.91973 30 7.5 29.5803 7.5 29.0625C7.5 28.5447 7.91973 28.125 8.4375 28.125H14.0625V24.3287C9.32501 23.8583 5.625 19.8613 5.625 15V13.125C5.625 12.6072 6.04473 12.1875 6.5625 12.1875Z" fill="#C89963"/>
<path id="Rectangle 7 (Stroke)" fill-rule="evenodd" clip-rule="evenodd" d="M18.75 15V5.625C18.75 3.55393 17.0711 1.875 15 1.875C12.9289 1.875 11.25 3.55393 11.25 5.625V15C11.25 17.0711 12.9289 18.75 15 18.75C17.0711 18.75 18.75 17.0711 18.75 15ZM15 0C11.8934 0 9.375 2.5184 9.375 5.625V15C9.375 18.1066 11.8934 20.625 15 20.625C18.1066 20.625 20.625 18.1066 20.625 15V5.625C20.625 2.5184 18.1066 0 15 0Z" fill="#C89963"/>
</g>
</svg>
