<svg width="28" height="28" viewBox="0 0 28 28" fill="none" xmlns="http://www.w3.org/2000/svg">
<path d="M4.66667 12.8333H11.6667C11.9761 12.8333 12.2728 12.7104 12.4916 12.4916C12.7104 12.2728 12.8333 11.9761 12.8333 11.6667V4.66667C12.8333 4.35725 12.7104 4.0605 12.4916 3.84171C12.2728 3.62292 11.9761 3.5 11.6667 3.5H4.66667C4.35725 3.5 4.0605 3.62292 3.84171 3.84171C3.62292 4.0605 3.5 4.35725 3.5 4.66667V11.6667C3.5 11.9761 3.62292 12.2728 3.84171 12.4916C4.0605 12.7104 4.35725 12.8333 4.66667 12.8333ZM5.83333 5.83333H10.5V10.5H5.83333V5.83333Z" fill="#B9BBBD"/>
<path d="M16.3346 12.8333H23.3346C23.6441 12.8333 23.9408 12.7104 24.1596 12.4916C24.3784 12.2728 24.5013 11.9761 24.5013 11.6667V4.66667C24.5013 4.35725 24.3784 4.0605 24.1596 3.84171C23.9408 3.62292 23.6441 3.5 23.3346 3.5H16.3346C16.0252 3.5 15.7285 3.62292 15.5097 3.84171C15.2909 4.0605 15.168 4.35725 15.168 4.66667V11.6667C15.168 11.9761 15.2909 12.2728 15.5097 12.4916C15.7285 12.7104 16.0252 12.8333 16.3346 12.8333ZM17.5013 5.83333H22.168V10.5H17.5013V5.83333Z" fill="#B9BBBD"/>
<path d="M4.66667 24.5003H11.6667C11.9761 24.5003 12.2728 24.3774 12.4916 24.1586C12.7104 23.9398 12.8333 23.6431 12.8333 23.3337V16.3337C12.8333 16.0242 12.7104 15.7275 12.4916 15.5087C12.2728 15.2899 11.9761 15.167 11.6667 15.167H4.66667C4.35725 15.167 4.0605 15.2899 3.84171 15.5087C3.62292 15.7275 3.5 16.0242 3.5 16.3337V23.3337C3.5 23.6431 3.62292 23.9398 3.84171 24.1586C4.0605 24.3774 4.35725 24.5003 4.66667 24.5003ZM5.83333 17.5003H10.5V22.167H5.83333V17.5003Z" fill="#B9BBBD"/>
<path d="M16.3346 24.5003H23.3346C23.6441 24.5003 23.9408 24.3774 24.1596 24.1586C24.3784 23.9398 24.5013 23.6431 24.5013 23.3337V16.3337C24.5013 16.0242 24.3784 15.7275 24.1596 15.5087C23.9408 15.2899 23.6441 15.167 23.3346 15.167H16.3346C16.0252 15.167 15.7285 15.2899 15.5097 15.5087C15.2909 15.7275 15.168 16.0242 15.168 16.3337V23.3337C15.168 23.6431 15.2909 23.9398 15.5097 24.1586C15.7285 24.3774 16.0252 24.5003 16.3346 24.5003ZM17.5013 17.5003H22.168V22.167H17.5013V17.5003Z" fill="#B9BBBD"/>
</svg>
