<svg width="17" height="17" viewBox="0 0 17 17" fill="none" xmlns="http://www.w3.org/2000/svg">
<g clip-path="url(#clip0_9_87931)">
<path d="M15.8814 8.07466C16.201 7.76325 16.3138 7.30622 16.1759 6.88136C16.0378 6.45651 15.6779 6.15323 15.2359 6.08887L11.3052 5.51773C11.1378 5.49335 10.9932 5.38836 10.9184 5.23656L9.16112 1.67519C8.96381 1.27504 8.56334 1.02637 8.11703 1.02637C7.67104 1.02637 7.27057 1.27504 7.07326 1.67519L5.31565 5.23688C5.24089 5.38868 5.09591 5.49368 4.92851 5.51806L0.99787 6.08919C0.556112 6.15323 0.195944 6.45683 0.0577934 6.88169C-0.0800324 7.30654 0.0327637 7.76358 0.352299 8.07499L3.19626 10.8471C3.3175 10.9654 3.37309 11.1358 3.34448 11.3022L2.67356 15.2166C2.61407 15.5611 2.70444 15.8963 2.92743 16.1606C3.27395 16.5724 3.87888 16.6979 4.36258 16.4437L7.87778 14.5954C8.02471 14.5183 8.20967 14.519 8.35627 14.5954L11.8718 16.4437C12.0428 16.5337 12.2251 16.5792 12.4134 16.5792C12.7569 16.5792 13.0827 16.4265 13.3066 16.1606C13.5299 15.8963 13.62 15.5605 13.5605 15.2166L12.8892 11.3022C12.8606 11.1354 12.9162 10.9654 13.0375 10.8471L15.8814 8.07466Z" fill="#F2C71C"/>
</g>
<defs>
<clipPath id="clip0_9_87931">
<rect width="16.2335" height="16.2335" fill="white" transform="translate(0 0.685547)"/>
</clipPath>
</defs>
</svg>
