<svg xmlns="http://www.w3.org/2000/svg" width="11" height="11" viewBox="0 0 11 11" fill="none">
  <path d="M8.45899 8.84688C8.09473 8.3646 7.62345 7.97349 7.0823 7.70436C6.54114 7.43523 5.94489 7.29543 5.3405 7.29598C4.73612 7.29543 4.13986 7.43523 3.59871 7.70436C3.05755 7.97349 2.58628 8.3646 2.22202 8.84688M8.45899 8.84688C9.1698 8.21463 9.6711 7.38124 9.89738 6.45724C10.1237 5.53323 10.0637 4.56227 9.7255 3.67312C9.38727 2.78396 8.78675 2.01863 8.00357 1.47861C7.22039 0.938597 6.29155 0.649414 5.34024 0.649414C4.38893 0.649414 3.4601 0.938597 2.67692 1.47861C1.89373 2.01863 1.29321 2.78396 0.954987 3.67312C0.616763 4.56227 0.556819 5.53323 0.783103 6.45724C1.00939 7.38124 1.51121 8.21463 2.22202 8.84688M8.45899 8.84688C7.60092 9.61226 6.49032 10.0345 5.3405 10.0329C4.1905 10.0346 3.08022 9.61238 2.22202 8.84688M6.90444 4.16811C6.90444 4.58289 6.73967 4.98069 6.44637 5.27398C6.15308 5.56728 5.75528 5.73205 5.3405 5.73205C4.92572 5.73205 4.52793 5.56728 4.23463 5.27398C3.94134 4.98069 3.77657 4.58289 3.77657 4.16811C3.77657 3.75333 3.94134 3.35554 4.23463 3.06224C4.52793 2.76895 4.92572 2.60418 5.3405 2.60418C5.75528 2.60418 6.15308 2.76895 6.44637 3.06224C6.73967 3.35554 6.90444 3.75333 6.90444 4.16811Z" stroke="#868688" stroke-width="0.781967" stroke-linecap="round" stroke-linejoin="round"/>
</svg>