<svg xmlns="http://www.w3.org/2000/svg" width="11" height="12" viewBox="0 0 11 12" fill="none">
  <path d="M5.51016 10.5291C6.55018 10.5291 7.56072 10.1836 8.38313 9.54697C9.20553 8.91036 9.79322 8.01864 10.0539 7.01183M5.51016 10.5291C4.47015 10.5291 3.45961 10.1836 2.6372 9.54697C1.8148 8.91036 1.22711 8.01864 0.966414 7.01183M5.51016 10.5291C6.80562 10.5291 7.85607 8.42823 7.85607 5.83731C7.85607 3.24639 6.80562 1.14551 5.51016 1.14551M5.51016 10.5291C4.21471 10.5291 3.16426 8.42823 3.16426 5.83731C3.16426 3.24639 4.21471 1.14551 5.51016 1.14551M5.51016 1.14551C6.3423 1.14516 7.15955 1.36621 7.87806 1.78597C8.59657 2.20574 9.19046 2.8091 9.59881 3.53416M5.51016 1.14551C4.67803 1.14516 3.86078 1.36621 3.14227 1.78597C2.42376 2.20574 1.82987 2.8091 1.42152 3.53416M9.59881 3.53416C8.46374 4.51731 7.01182 5.05751 5.51016 5.05534C3.94727 5.05534 2.51784 4.4819 1.42152 3.53416M9.59881 3.53416C9.99545 4.23688 10.2033 5.03038 10.202 5.83731C10.202 6.24289 10.1504 6.63648 10.0539 7.01183M10.0539 7.01183C8.66367 7.78252 7.09974 8.18571 5.51016 8.18321C3.86178 8.18321 2.31296 7.75835 0.966414 7.01183M0.966414 7.01183C0.867754 6.62813 0.818009 6.23349 0.818361 5.83731C0.818361 5.00061 1.03731 4.21447 1.42152 3.53416" stroke="#8E8E90" stroke-width="1.04262" stroke-linecap="round" stroke-linejoin="round"/>
</svg>